Fly_normalized_Motion_pl14
version=1
nRows=12
nColumns=43
inDegrees=yes
endheader
time		pelvis_tilt		pelvis_list		pelvis_rotation		pelvis_tx		pelvis_ty		pelvis_tz		hip_flexion_r		hip_adduction_r		hip_rotation_r		knee_angle_r		ankle_angle_r		subtalar_angle_r		mtp_angle_r		hip_flexion_l		hip_adduction_l		hip_rotation_l		knee_angle_l		ankle_angle_l		subtalar_angle_l		mtp_angle_l		lumbar_extension		lumbar_bending		lumbar_rotation		neck_flexion		neck_lateral_bending		neck_rotation		arm_flex_r		arm_add_r		arm_rot_r		elbow_flex_r		pro_sup_r		wrist_flex_r		wrist_dev_r		hand_finger_flex_r		arm_flex_l		arm_add_l		arm_rot_l		elbow_flex_l		pro_sup_l		wrist_flex_l		wrist_dev_l		hand_finger_flex_l		
0.723333		1.331142		-6.658062		89.017904		0.013678		1.545904		0.967009		46.294593		-0.453223		-4.779046		-36.176961		-18.788854		-2.158004		19.305415		45.197844		-8.822860		-9.992342		-34.050720		-21.712333		8.035017		22.217094		-42.141262		-0.190286		-4.025798		4.367639		-3.065783		5.560865		-13.734446		-24.380757		-0.499541		40.020397		112.777201		4.833669		2.562656		9.573091		-11.261891		-23.484669		-5.049015		55.679393		106.246308		-6.112775		-4.419500		12.952923		
0.727702		1.100959		-6.351657		88.782187		0.013619		1.532684		0.957337		45.695062		-0.591900		-4.709992		-35.405710		-18.933149		-1.612103		19.370057		44.403254		-8.827619		-10.482031		-33.477497		-21.773820		8.477522		22.166868		-41.600474		-0.559268		-3.933713		2.584647		-2.913376		5.437936		-16.380338		-24.191303		-1.725076		39.746291		112.384407		4.703896		2.466573		9.279205		-13.627318		-23.161969		-5.144362		55.302871		105.949155		-5.930106		-4.925743		12.346486		
0.732071		0.996211		-6.062738		88.723553		0.013519		1.519184		0.947759		45.133974		-0.688883		-4.750034		-34.696164		-19.339912		-1.361096		19.322633		43.702993		-8.766919		-10.650133		-32.932873		-21.889309		8.646896		22.145630		-41.068193		-0.728844		-4.001836		0.959664		-2.845087		5.393369		-18.955979		-24.225167		-2.260788		39.691740		112.128835		4.643554		2.278615		9.193512		-16.226816		-22.979706		-5.201231		55.354084		105.800786		-5.888869		-5.214134		12.176809		
0.736439		0.696993		-5.685710		88.442070		0.013193		1.505672		0.937777		44.569602		-0.881165		-4.606582		-34.191519		-19.569528		-0.917093		19.312709		42.801153		-8.683687		-11.180014		-32.404023		-21.974391		9.168233		22.102343		-40.544602		-1.140274		-3.933132		-0.991259		-2.710021		5.246028		-21.628742		-24.041715		-3.540971		39.545912		111.622525		4.514035		2.175292		8.929342		-18.628727		-22.531198		-5.435226		55.117910		105.522158		-5.761329		-5.653534		11.784727		
0.740808		0.476987		-5.336173		88.245652		0.012959		1.491951		0.927819		43.994532		-1.036478		-4.541441		-33.631247		-19.886303		-0.584481		19.257008		41.978121		-8.604137		-11.541172		-31.912835		-22.083136		9.513048		22.064157		-40.018374		-1.450851		-3.892953		-2.750386		-2.656831		5.140212		-24.259727		-23.970907		-4.399117		39.544118		111.334336		4.479257		2.034056		8.733780		-21.138272		-22.197027		-5.587395		55.148150		105.300049		-5.597645		-6.037296		11.525973		
0.745177		0.308084		-4.999689		88.105343		0.012691		1.478062		0.917714		43.382554		-1.192101		-4.598101		-33.036113		-20.164834		-0.279750		19.171404		41.183486		-8.543639		-11.857766		-31.449423		-22.256121		9.869317		22.038565		-39.444637		-1.682856		-3.852814		-4.635533		-2.619786		5.069995		-26.880712		-23.905167		-5.198837		39.559946		111.064864		4.375764		1.852463		8.582609		-23.640312		-21.748251		-5.912903		55.175683		105.028184		-5.509043		-6.376279		11.400225		
0.749545		0.153671		-4.687071		87.963104		0.012559		1.463975		0.907526		42.760637		-1.325439		-4.684489		-32.401870		-20.397342		0.084867		19.064844		40.394014		-8.514351		-12.180662		-30.983919		-22.431967		10.297813		22.017882		-38.841995		-1.902348		-3.801994		-6.495674		-2.635520		4.972213		-29.493638		-23.823712		-5.990639		39.685638		110.891000		4.294233		1.728223		8.450566		-26.153664		-21.305298		-6.262679		55.264033		104.773776		-5.412994		-6.659002		11.306530		
0.753914		0.035355		-4.398878		87.837811		0.012449		1.449645		0.897335		42.136302		-1.440486		-4.818822		-31.748317		-20.637409		0.444084		18.948730		39.633848		-8.494546		-12.431875		-30.487188		-22.626278		10.737183		22.003085		-38.207555		-2.073695		-3.762797		-8.341989		-2.680793		4.880398		-32.094579		-23.749874		-6.734916		39.903721		110.826963		4.221398		1.647184		8.360524		-28.689274		-20.834893		-6.631701		55.427901		104.559015		-5.418638		-6.832868		11.201159		
0.758283		-0.070937		-4.126875		87.730859		0.012374		1.435161		0.887064		41.524949		-1.549157		-4.978017		-31.119317		-20.897622		0.806523		18.826762		38.864560		-8.463475		-12.636959		-29.956030		-22.837892		11.221749		21.992112		-37.550130		-2.219954		-3.692412		-10.206575		-2.741966		4.799555		-34.693964		-23.626437		-7.544337		40.208803		110.890451		4.166400		1.632748		8.309743		-31.211741		-20.318260		-7.060970		55.668827		104.371089		-5.540200		-6.895280		11.042027		
0.762652		-0.156303		-3.881018		87.617871		0.012287		1.420480		0.876815		40.942064		-1.633931		-5.168122		-30.497283		-21.234799		1.101893		18.713383		38.088858		-8.417150		-12.749252		-29.353286		-23.064594		11.648954		21.985349		-36.873436		-2.342490		-3.642823		-12.060078		-2.792872		4.737391		-37.266607		-23.497963		-8.400486		40.609098		111.025735		4.122031		1.597053		8.318169		-33.792652		-19.789249		-7.479899		56.050448		104.196886		-5.737491		-6.941822		10.866318		
0.767020		-0.233566		-3.658317		87.511951		0.012219		1.405632		0.866559		40.388756		-1.706227		-5.397153		-29.893553		-21.625375		1.326934		18.614268		37.317367		-8.352393		-12.798050		-28.708875		-23.302737		12.012910		21.983792		-36.182194		-2.452798		-3.571775		-13.843442		-2.837823		4.694400		-39.800590		-23.309921		-9.352364		41.034087		111.219208		4.109209		1.537102		8.394029		-36.367389		-19.255422		-7.903470		56.544435		103.996183		-5.943726		-7.037549		10.712958		
0.771389		-0.309138		-3.441496		87.381589		0.012167		1.390640		0.856301		39.826072		-1.773421		-5.696702		-29.272687		-21.987764		1.599090		18.517970		36.541180		-8.296838		-12.840452		-28.062860		-23.529916		12.473262		22.026704		-35.494197		-2.556238		-3.412459		-15.559849		-2.944061		4.584843		-42.352635		-22.735586		-11.388467		41.619385		112.464799		4.547032		1.644634		8.839409		-38.893488		-18.714423		-8.340071		57.144659		103.730342		-6.001673		-7.086918		10.610711		
